<svg xmlns="http://www.w3.org/2000/svg" xmlns:xlink="http://www.w3.org/1999/xlink" version="1.1" x="0px" y="0px" viewBox="0 0 414.3 67.4" enable-background="new 0 0 414.3 67.4" xml:space="preserve"><path fill-rule="evenodd" clip-rule="evenodd" fill="#E82C2E" d="M372.5 30.4l-22.2 22.6l-16.7-16.7l22.2-22.6 l0 0c0 0-4.5-4.5-4.5-4.5c-0.7-0.7-1.1-1.7-1.1-2.7v0c0-1.1 0.4-2 1.1-2.7c0.7-0.7 1.6-1.1 2.7-1.1h12.9h12.9c1.1 0 2 0.4 2.7 1.1 c0.7 0.7 1.1 1.6 1.1 2.7v12.9v12.9c0 1.1-0.4 2-1.1 2.7c-0.7 0.7-1.6 1.1-2.7 1.1l0 0c-1.1 0-2-0.4-2.7-1.1 C377 35 375.2 33.1 372.5 30.4L372.5 30.4z"/><path fill-rule="evenodd" clip-rule="evenodd" fill="#92111D" d="M399.7 43.3L376 67.4l-17.8-17.8l23.7-24.1 l0 0c0 0-4.8-4.8-4.8-4.8c-0.8-0.8-1.2-1.8-1.2-2.9v0c0-1.1 0.5-2.1 1.2-2.9c0.7-0.7 1.8-1.2 2.9-1.2h13.7h13.7 c1.1 0 2.1 0.5 2.9 1.2c0.7 0.7 1.2 1.8 1.2 2.9v13.7v13.7c0 1.1-0.5 2.1-1.2 2.9c-0.7 0.7-1.8 1.2-2.9 1.2l0 0 c-1.1 0-2.1-0.5-2.9-1.2C404.5 48.1 402.5 46.1 399.7 43.3L399.7 43.3z"/><path fill-rule="evenodd" clip-rule="evenodd" fill="#FFFFFF" d="M377.7 47.4L358 67.1l-16.7-16.7L361 30.7l0 0 c0 0-4.5-4.5-4.5-4.5c-0.7-0.7-1.1-1.7-1.1-2.7v0c0-1.1 0.4-2 1.1-2.7c0.7-0.7 1.6-1.1 2.7-1.1H372h12.9c1.1 0 2 0.4 2.7 1.1 c0.7 0.7 1.1 1.6 1.1 2.7v12.9v12.9c0 1.1-0.4 2-1.1 2.7c-0.7 0.7-1.6 1.1-2.7 1.1l0 0c-1.1 0-2-0.4-2.7-1.1 C382.2 51.9 380.3 50 377.7 47.4L377.7 47.4z"/><text transform="matrix(1 0 0 1 0 49.7983)" stroke="#000000" stroke-width="1.5" font-family="'Skia-Regular'" font-size="60.5667" letter-spacing="-2">CHALLENGE</text></svg>